<?xml version="1.0" encoding="utf-8"?>
<svg version="1.1" id="Layer_1"
xmlns="http://www.w3.org/2000/svg"
xmlns:xlink="http://www.w3.org/1999/xlink"
width="550px" height="400px"
xml:space="preserve">
<g id="PathID_1" transform="matrix(4.11933, 0, 0, 4.11933, 83.25, -269.25)" opacity="1">
<path style="fill:#D5939C;fill-opacity:1" d="M58.35 104.35L57.9 105.45Q59.15 106.2 59.5 108Q59.9 109.95 58.85 111.3Q56.8 113.85 52.25 115.55Q48.05 117.2 46.7 116.55Q47.05 114.35 48.05 111.6Q50.05 106.15 53.4 103.55Q55.85 101.55 59.3 101.55L58.35 104.35" />
</g>
<g id="PathID_2" transform="matrix(4.11933, 0, 0, 4.11933, 83.25, -269.25)" opacity="1">
</g>
<g id="PathID_3" transform="matrix(4.11933, 0, 0, 4.11933, 303.3, 137.8)" opacity="1">
<path style="fill:#F16087;fill-opacity:1" d="M7.3 -17.8Q6.95 -16.9 7.3 -9.15Q7.3 -0.35 4.95 5.45L4.5 6.55Q5.75 7.3 6.1 9.1Q6.5 11.05 5.45 12.4Q3.4 14.95 -1.15 16.65Q-5.35 18.3 -6.7 17.65Q-7.25 14.8 -7.3 10.6Q-7.35 2.3 -4.7 -4.3Q-2.4 -10.05 2.45 -14.05Q6.95 -16.95 7.3 -17.8" />
</g>
<g id="PathID_4" transform="matrix(4.11933, 0, 0, 4.11933, 303.3, 137.8)" opacity="1">
</g>
<g id="PathID_5" transform="matrix(4.11933, 0, 0, 4.11933, 234.15, 135.45)" opacity="1">
<path style="fill:#C20F3F;fill-opacity:1" d="M-2.45 -14.05Q2.35 -10.05 4.7 -4.3Q7.3 2.3 7.3 10.6Q7.25 14.8 6.7 17.65Q5.35 18.3 1.15 16.65Q-3.4 14.95 -5.45 12.4Q-6.5 11.05 -6.1 9.1Q-5.75 7.3 -4.5 6.55L-4.95 5.45Q-7.3 -0.35 -7.3 -9.15Q-6.95 -16.95 -7.3 -17.8Q-6.9 -16.95 -2.45 -14.05" />
</g>
<g id="PathID_6" transform="matrix(4.11933, 0, 0, 4.11933, 234.15, 135.45)" opacity="1">
</g>
<g id="PathID_7" transform="matrix(4.11933, 0, 0, 4.11933, 226.3, 186.05)" opacity="0.5">
<path style="fill:#ED7091;fill-opacity:1" d="M-8.9 -8.95L-4.85 -9.5Q-0.7 -9.95 2.25 -7.6Q5.55 -5 7.6 0.45Q8.6 3.2 8.95 5.4Q8.2 6.7 5.05 8.25Q1.65 9.9 -0.3 9.5Q-1.3 9.25 -1.5 7.8Q-1.75 6.35 -1.1 5.15L-1.65 4.7Q-4.6 2.35 -6.8 -3.35L-8.9 -8.95" />
</g>
<g id="PathID_8" transform="matrix(4.11933, 0, 0, 4.11933, 226.3, 186.05)" opacity="0.5">
</g>
<g id="PathID_9" transform="matrix(4.11933, 0, 0, 4.11933, 312.25, 188.25)" opacity="0.5">
<path style="fill:#FFABC2;fill-opacity:1" d="M8.95 -8.95L6.85 -3.35Q4.65 2.35 1.7 4.7L1.15 5.15Q1.75 6.35 1.55 7.8Q1.35 9.25 0.3 9.5Q-1.65 9.9 -5.05 8.25Q-8.2 6.7 -8.9 5.4L-7.55 0.45Q-5.55 -5 -2.2 -7.6Q0.75 -9.95 4.9 -9.5L8.95 -8.95" />
</g>
<g id="PathID_10" transform="matrix(4.11933, 0, 0, 4.11933, 312.25, 188.25)" opacity="0.5">
</g>
<g id="PathID_11" transform="matrix(0.859007, 0, 0, 0.859007, 220.5, 236.5)" opacity="1">
<path style="fill:#C20F3F;fill-opacity:1" d="M-0.05 0L14 -36.65L19.3 -36.65L34.25 0L28.75 0L24.5 -11.1L9.1 -11.1L5.1 0L-0.05 0M10.45 -15.05L22.95 -15.05L19.15 -25.2Q17.35 -29.8 16.5 -32.85Q15.8 -29.25 14.5 -25.75L10.45 -15.05" />
</g>
<g id="PathID_12" transform="matrix(0.859007, 0, 0, 0.859007, 220.5, 236.5)" opacity="1">
</g>
<g id="PathID_13" transform="matrix(0.859007, 0, 0, 0.859007, 248.65, 236.5)" opacity="1">
<path style="fill:#C20F3F;fill-opacity:1" d="M3.4 0L3.4 -26.55L7.45 -26.55L7.45 -22.75Q10.35 -27.15 15.85 -27.15Q18.25 -27.15 20.25 -26.25Q22.3 -25.4 23.3 -24Q24.3 -22.6 24.7 -20.7Q24.95 -19.45 24.95 -16.3L24.95 0L20.45 0L20.45 -16.15Q20.45 -18.9 19.9 -20.25Q19.4 -21.6 18.05 -22.4Q16.7 -23.25 14.9 -23.25Q12.05 -23.25 9.95 -21.4Q7.9 -19.6 7.9 -14.5L7.9 0L3.4 0" />
</g>
<g id="PathID_14" transform="matrix(0.859007, 0, 0, 0.859007, 248.65, 236.5)" opacity="1">
</g>
<g id="PathID_15" transform="matrix(0.859007, 0, 0, 0.859007, 272, 236.5)" opacity="1">
<path style="fill:#C20F3F;fill-opacity:1" d="M3.4 -31.5L3.4 -36.65L7.9 -36.65L7.9 -31.5L3.4 -31.5M3.4 0L3.4 -26.55L7.9 -26.55L7.9 0L3.4 0" />
</g>
<g id="PathID_16" transform="matrix(0.859007, 0, 0, 0.859007, 272, 236.5)" opacity="1">
</g>
<g id="PathID_17" transform="matrix(0.859007, 0, 0, 0.859007, 280.65, 236.5)" opacity="1">
<path style="fill:#C20F3F;fill-opacity:1" d="M13.2 -4L13.8 -0.05Q11.9 0.35 10.4 0.35Q7.95 0.35 6.6 -0.4Q5.25 -1.2 4.7 -2.45Q4.15 -3.7 4.15 -7.75L4.15 -23.05L0.8 -23.05L0.8 -26.55L4.15 -26.55L4.15 -33.1L8.65 -35.8L8.65 -26.55L13.2 -26.55L13.2 -23.05L8.65 -23.05L8.65 -7.5Q8.65 -5.6 8.85 -5.05Q9.1 -4.5 9.65 -4.15Q10.2 -3.85 11.2 -3.85Q11.95 -3.85 13.2 -4" />
</g>
<g id="PathID_18" transform="matrix(0.859007, 0, 0, 0.859007, 280.65, 236.5)" opacity="1">
</g>
<g id="PathID_19" transform="matrix(0.859007, 0, 0, 0.859007, 291.75, 236.5)" opacity="1">
<path style="fill:#C20F3F;fill-opacity:1" d="M20.7 -3.35Q18.2 -1.15 15.85 -0.25Q13.55 0.6 10.9 0.6Q6.55 0.6 4.2 -1.5Q1.85 -3.65 1.85 -7Q1.85 -8.95 2.7 -10.55Q3.6 -12.15 5.05 -13.1Q6.5 -14.1 8.3 -14.6Q9.6 -14.95 12.3 -15.3Q17.75 -15.95 20.3 -16.85L20.35 -18Q20.35 -20.75 19.05 -21.85Q17.35 -23.4 13.95 -23.4Q10.75 -23.4 9.25 -22.25Q7.75 -21.15 7.05 -18.35L2.65 -18.95Q3.25 -21.75 4.6 -23.5Q6 -25.25 8.6 -26.2Q11.2 -27.15 14.6 -27.15Q18 -27.15 20.1 -26.3Q22.25 -25.5 23.25 -24.3Q24.25 -23.1 24.65 -21.25Q24.9 -20.1 24.9 -17.1L24.9 -11.1Q24.9 -4.85 25.15 -3.15Q25.45 -1.5 26.3 0L21.6 0Q20.9 -1.4 20.7 -3.35M20.3 -13.3Q17.85 -12.3 12.95 -11.6Q10.15 -11.2 9 -10.7Q7.85 -10.2 7.25 -9.2Q6.65 -8.25 6.65 -7.1Q6.65 -5.3 8 -4.1Q9.35 -2.95 12 -2.95Q14.6 -2.95 16.6 -4.05Q18.65 -5.2 19.6 -7.15Q20.3 -8.65 20.3 -11.65L20.3 -13.3" />
</g>
<g id="PathID_20" transform="matrix(0.859007, 0, 0, 0.859007, 291.75, 236.5)" opacity="1">
</g>
<g id="PathID_21" transform="matrix(0.3125, 0, 0, 0.3125, 198.75, 249.4)" opacity="1">
<path style="fill:#FB717E;fill-opacity:1" d="M3.35 0L3.35 -26.55L7.4 -26.55L7.4 -22.5Q8.9 -25.35 10.2 -26.25Q11.55 -27.15 13.1 -27.15Q15.4 -27.15 17.75 -25.7L16.15 -21.5Q14.55 -22.5 12.9 -22.5Q11.4 -22.5 10.2 -21.6Q9.05 -20.7 8.55 -19.15Q7.85 -16.75 7.85 -13.9L7.85 0L3.35 0" />
</g>
<g id="PathID_22" transform="matrix(0.3125, 0, 0, 0.3125, 198.75, 249.4)" opacity="1">
</g>
<g id="PathID_23" transform="matrix(0.3125, 0, 0, 0.3125, 204.05, 249.4)" opacity="1">
<path style="fill:#FB717E;fill-opacity:1" d="M21.55 -8.6L26.2 -8Q25.1 -3.9 22.1 -1.65Q19.15 0.6 14.5 0.6Q8.7 0.6 5.3 -2.95Q1.9 -6.55 1.9 -13.05Q1.9 -19.75 5.3 -23.45Q8.75 -27.15 14.25 -27.15Q19.6 -27.15 22.95 -23.5Q26.35 -19.9 26.35 -13.3L26.3 -12.15L6.55 -12.15Q6.75 -7.75 8.95 -5.4Q11.2 -3.1 14.55 -3.1Q17 -3.1 18.75 -4.4Q20.5 -5.7 21.55 -8.6M6.8 -15.85L21.6 -15.85Q21.3 -19.15 19.9 -20.85Q17.75 -23.45 14.3 -23.45Q11.2 -23.45 9.1 -21.35Q7 -19.3 6.8 -15.85" />
</g>
<g id="PathID_24" transform="matrix(0.3125, 0, 0, 0.3125, 204.05, 249.4)" opacity="1">
</g>
<g id="PathID_25" transform="matrix(0.3125, 0, 0, 0.3125, 212.95, 249.4)" opacity="1">
<path style="fill:#FB717E;fill-opacity:1" d="M3.3 0L3.3 -36.65L7.8 -36.65L7.8 0L3.3 0" />
</g>
<g id="PathID_26" transform="matrix(0.3125, 0, 0, 0.3125, 212.95, 249.4)" opacity="1">
</g>
<g id="PathID_27" transform="matrix(0.3125, 0, 0, 0.3125, 216.5, 249.4)" opacity="1">
<path style="fill:#FB717E;fill-opacity:1" d="M20.7 -3.35Q18.2 -1.15 15.85 -0.25Q13.55 0.6 10.9 0.6Q6.55 0.6 4.2 -1.5Q1.85 -3.65 1.85 -7Q1.85 -8.95 2.7 -10.55Q3.6 -12.15 5.05 -13.1Q6.5 -14.1 8.3 -14.6Q9.6 -14.95 12.3 -15.3Q17.75 -15.95 20.3 -16.85L20.35 -18Q20.35 -20.75 19.05 -21.85Q17.35 -23.4 13.95 -23.4Q10.75 -23.4 9.25 -22.25Q7.75 -21.15 7.05 -18.35L2.65 -18.95Q3.25 -21.75 4.6 -23.5Q6 -25.25 8.6 -26.2Q11.2 -27.15 14.6 -27.15Q18 -27.15 20.1 -26.3Q22.25 -25.5 23.25 -24.3Q24.25 -23.1 24.65 -21.25Q24.9 -20.1 24.9 -17.1L24.9 -11.1Q24.9 -4.85 25.15 -3.15Q25.45 -1.5 26.3 0L21.6 0Q20.9 -1.4 20.7 -3.35M20.3 -13.3Q17.85 -12.3 12.95 -11.6Q10.15 -11.2 9 -10.7Q7.85 -10.2 7.25 -9.2Q6.65 -8.25 6.65 -7.1Q6.65 -5.3 8 -4.1Q9.35 -2.95 12 -2.95Q14.6 -2.95 16.6 -4.05Q18.65 -5.2 19.6 -7.15Q20.3 -8.65 20.3 -11.65L20.3 -13.3" />
</g>
<g id="PathID_28" transform="matrix(0.3125, 0, 0, 0.3125, 216.5, 249.4)" opacity="1">
</g>
<g id="PathID_29" transform="matrix(0.3125, 0, 0, 0.3125, 225.4, 249.4)" opacity="1">
<path style="fill:#FB717E;fill-opacity:1" d="M0.35 0L10.05 -13.75L1.1 -26.55L6.6 -26.55L10.8 -20.3L12.6 -17.35L14.65 -20.25L19.15 -26.55L24.55 -26.55L15.55 -13.75L25.25 0L19.75 0L14.25 -8.25L12.95 -10.25L5.85 0L0.35 0" />
</g>
<g id="PathID_30" transform="matrix(0.3125, 0, 0, 0.3125, 225.4, 249.4)" opacity="1">
</g>
<g id="PathID_31" transform="matrix(0.3125, 0, 0, 0.3125, 233.4, 249.4)" opacity="1">
<path style="fill:#FB717E;fill-opacity:1" d="M3.4 -31.5L3.4 -36.65L7.9 -36.65L7.9 -31.5L3.4 -31.5M3.4 0L3.4 -26.55L7.9 -26.55L7.9 0L3.4 0" />
</g>
<g id="PathID_32" transform="matrix(0.3125, 0, 0, 0.3125, 233.4, 249.4)" opacity="1">
</g>
<g id="PathID_33" transform="matrix(0.3125, 0, 0, 0.3125, 236.95, 249.4)" opacity="1">
<path style="fill:#FB717E;fill-opacity:1" d="M3.4 0L3.4 -26.55L7.45 -26.55L7.45 -22.75Q10.35 -27.15 15.85 -27.15Q18.25 -27.15 20.25 -26.25Q22.3 -25.4 23.3 -24Q24.3 -22.6 24.7 -20.7Q24.95 -19.45 24.95 -16.3L24.95 0L20.45 0L20.45 -16.15Q20.45 -18.9 19.9 -20.25Q19.4 -21.6 18.05 -22.4Q16.7 -23.25 14.9 -23.25Q12.05 -23.25 9.95 -21.4Q7.9 -19.6 7.9 -14.5L7.9 0L3.4 0" />
</g>
<g id="PathID_34" transform="matrix(0.3125, 0, 0, 0.3125, 236.95, 249.4)" opacity="1">
</g>
<g id="PathID_35" transform="matrix(0.3125, 0, 0, 0.3125, 245.85, 249.4)" opacity="1">
<path style="fill:#FB717E;fill-opacity:1" d="M2.55 2.2L6.95 2.8Q7.2 4.85 8.45 5.8Q10.1 7.05 13 7.05Q16.1 7.05 17.8 5.8Q19.5 4.55 20.1 2.3Q20.45 0.95 20.45 -3.5Q17.5 0 13.1 0Q7.6 0 4.6 -3.95Q1.65 -7.9 1.65 -13.4Q1.65 -17.2 3 -20.4Q4.4 -23.65 7 -25.4Q9.6 -27.15 13.15 -27.15Q17.85 -27.15 20.9 -23.3L20.9 -26.55L25.05 -26.55L25.05 -3.55Q25.05 2.65 23.75 5.2Q22.5 7.8 19.75 9.3Q17.05 10.8 13.05 10.8Q8.3 10.8 5.35 8.65Q2.45 6.55 2.55 2.2M6.3 -13.7Q6.3 -8.5 8.35 -6.1Q10.4 -3.75 13.55 -3.75Q16.65 -3.75 18.75 -6.1Q20.85 -8.5 20.85 -13.6Q20.85 -18.45 18.65 -20.9Q16.5 -23.4 13.45 -23.4Q10.45 -23.4 8.35 -20.95Q6.3 -18.5 6.3 -13.7" />
</g>
<g id="PathID_36" transform="matrix(0.3125, 0, 0, 0.3125, 245.85, 249.4)" opacity="1">
</g>
<g id="PathID_37" transform="matrix(0.3125, 0, 0, 0.3125, 259.2, 249.4)" opacity="1">
<path style="fill:#FB717E;fill-opacity:1" d="M3.2 10.3L2.7 6.05Q4.15 6.45 5.25 6.45Q6.75 6.45 7.65 5.95Q8.55 5.45 9.1 4.55Q9.55 3.9 10.5 1.2L10.9 0.1L0.8 -26.55L5.6 -26.55L11.15 -11.15Q12.2 -8.25 13.05 -5Q13.85 -8.1 14.95 -11.05L20.65 -26.55L25.15 -26.55L15.05 0.5Q13.45 4.85 12.55 6.5Q11.35 8.75 9.8 9.75Q8.25 10.8 6.1 10.8Q4.8 10.8 3.2 10.3" />
</g>
<g id="PathID_38" transform="matrix(0.3125, 0, 0, 0.3125, 259.2, 249.4)" opacity="1">
</g>
<g id="PathID_39" transform="matrix(0.3125, 0, 0, 0.3125, 267.2, 249.4)" opacity="1">
<path style="fill:#FB717E;fill-opacity:1" d="M1.7 -13.25Q1.7 -20.65 5.8 -24.2Q9.2 -27.15 14.15 -27.15Q19.6 -27.15 23.1 -23.55Q26.6 -19.95 26.6 -13.65Q26.6 -8.5 25.05 -5.55Q23.5 -2.65 20.55 -1Q17.6 0.6 14.15 0.6Q8.55 0.6 5.1 -2.95Q1.7 -6.55 1.7 -13.25M6.35 -13.25Q6.35 -8.15 8.55 -5.6Q10.75 -3.1 14.15 -3.1Q17.5 -3.1 19.7 -5.6Q21.95 -8.15 21.95 -13.4Q21.95 -18.3 19.7 -20.85Q17.45 -23.4 14.15 -23.4Q10.75 -23.4 8.55 -20.85Q6.35 -18.35 6.35 -13.25" />
</g>
<g id="PathID_40" transform="matrix(0.3125, 0, 0, 0.3125, 267.2, 249.4)" opacity="1">
</g>
<g id="PathID_41" transform="matrix(0.3125, 0, 0, 0.3125, 276.1, 249.4)" opacity="1">
<path style="fill:#FB717E;fill-opacity:1" d="M20.8 0L20.8 -3.9Q17.7 0.6 12.35 0.6Q10 0.6 7.95 -0.3Q5.95 -1.2 4.95 -2.55Q3.95 -3.9 3.55 -5.9Q3.3 -7.2 3.3 -10.1L3.3 -26.55L7.8 -26.55L7.8 -11.8Q7.8 -8.3 8.05 -7.05Q8.45 -5.3 9.8 -4.3Q11.2 -3.3 13.25 -3.3Q15.25 -3.3 17 -4.3Q18.8 -5.35 19.55 -7.1Q20.3 -8.9 20.3 -12.3L20.3 -26.55L24.8 -26.55L24.8 0L20.8 0" />
</g>
<g id="PathID_42" transform="matrix(0.3125, 0, 0, 0.3125, 276.1, 249.4)" opacity="1">
</g>
<g id="PathID_43" transform="matrix(0.3125, 0, 0, 0.3125, 285, 249.4)" opacity="1">
<path style="fill:#FB717E;fill-opacity:1" d="M3.35 0L3.35 -26.55L7.4 -26.55L7.4 -22.5Q8.9 -25.35 10.2 -26.25Q11.55 -27.15 13.1 -27.15Q15.4 -27.15 17.75 -25.7L16.15 -21.5Q14.55 -22.5 12.9 -22.5Q11.4 -22.5 10.2 -21.6Q9.05 -20.7 8.55 -19.15Q7.85 -16.75 7.85 -13.9L7.85 0L3.35 0" />
</g>
<g id="PathID_44" transform="matrix(0.3125, 0, 0, 0.3125, 285, 249.4)" opacity="1">
</g>
<g id="PathID_45" transform="matrix(0.3125, 0, 0, 0.3125, 294.75, 249.4)" opacity="1">
<path style="fill:#FB717E;fill-opacity:1" d="M1.6 -7.95L6.05 -8.65Q6.4 -5.95 8.1 -4.5Q9.8 -3.1 12.9 -3.1Q16 -3.1 17.5 -4.35Q19 -5.6 19 -7.3Q19 -8.85 17.65 -9.7Q16.75 -10.3 13.1 -11.25Q8.15 -12.5 6.2 -13.4Q4.3 -14.3 3.3 -15.9Q2.35 -17.55 2.35 -19.5Q2.35 -21.25 3.15 -22.75Q3.95 -24.3 5.35 -25.3Q6.4 -26.05 8.2 -26.6Q10.05 -27.15 12.1 -27.15Q15.25 -27.15 17.6 -26.25Q19.95 -25.35 21.05 -23.8Q22.2 -22.25 22.65 -19.7L18.25 -19.1Q17.95 -21.15 16.5 -22.3Q15.05 -23.45 12.45 -23.45Q9.35 -23.45 8 -22.4Q6.7 -21.4 6.7 -20Q6.7 -19.15 7.25 -18.45Q7.8 -17.7 8.95 -17.25L12.95 -16.1Q17.7 -14.8 19.6 -14Q21.5 -13.2 22.55 -11.65Q23.65 -10.1 23.65 -7.8Q23.65 -5.55 22.3 -3.55Q21 -1.55 18.5 -0.45Q16.05 0.6 12.95 0.6Q7.75 0.6 5.05 -1.55Q2.35 -3.7 1.6 -7.95" />
</g>
<g id="PathID_46" transform="matrix(0.3125, 0, 0, 0.3125, 294.75, 249.4)" opacity="1">
</g>
<g id="PathID_47" transform="matrix(0.3125, 0, 0, 0.3125, 302.75, 249.4)" opacity="1">
<path style="fill:#FB717E;fill-opacity:1" d="M13.2 -4L13.8 -0.05Q11.9 0.35 10.4 0.35Q7.95 0.35 6.6 -0.4Q5.25 -1.2 4.7 -2.45Q4.15 -3.7 4.15 -7.75L4.15 -23.05L0.8 -23.05L0.8 -26.55L4.15 -26.55L4.15 -33.1L8.65 -35.8L8.65 -26.55L13.2 -26.55L13.2 -23.05L8.65 -23.05L8.65 -7.5Q8.65 -5.6 8.85 -5.05Q9.1 -4.5 9.65 -4.15Q10.2 -3.85 11.2 -3.85Q11.95 -3.85 13.2 -4" />
</g>
<g id="PathID_48" transform="matrix(0.3125, 0, 0, 0.3125, 302.75, 249.4)" opacity="1">
</g>
<g id="PathID_49" transform="matrix(0.3125, 0, 0, 0.3125, 307.2, 249.4)" opacity="1">
<path style="fill:#FB717E;fill-opacity:1" d="M3.35 0L3.35 -26.55L7.4 -26.55L7.4 -22.5Q8.9 -25.35 10.2 -26.25Q11.55 -27.15 13.1 -27.15Q15.4 -27.15 17.75 -25.7L16.15 -21.5Q14.55 -22.5 12.9 -22.5Q11.4 -22.5 10.2 -21.6Q9.05 -20.7 8.55 -19.15Q7.85 -16.75 7.85 -13.9L7.85 0L3.35 0" />
</g>
<g id="PathID_50" transform="matrix(0.3125, 0, 0, 0.3125, 307.2, 249.4)" opacity="1">
</g>
<g id="PathID_51" transform="matrix(0.3125, 0, 0, 0.3125, 312.5, 249.4)" opacity="1">
<path style="fill:#FB717E;fill-opacity:1" d="M21.55 -8.6L26.2 -8Q25.1 -3.9 22.1 -1.65Q19.15 0.6 14.5 0.6Q8.7 0.6 5.3 -2.95Q1.9 -6.55 1.9 -13.05Q1.9 -19.75 5.3 -23.45Q8.75 -27.15 14.25 -27.15Q19.6 -27.15 22.95 -23.5Q26.35 -19.9 26.35 -13.3L26.3 -12.15L6.55 -12.15Q6.75 -7.75 8.95 -5.4Q11.2 -3.1 14.55 -3.1Q17 -3.1 18.75 -4.4Q20.5 -5.7 21.55 -8.6M6.8 -15.85L21.6 -15.85Q21.3 -19.15 19.9 -20.85Q17.75 -23.45 14.3 -23.45Q11.2 -23.45 9.1 -21.35Q7 -19.3 6.8 -15.85" />
</g>
<g id="PathID_52" transform="matrix(0.3125, 0, 0, 0.3125, 312.5, 249.4)" opacity="1">
</g>
<g id="PathID_53" transform="matrix(0.3125, 0, 0, 0.3125, 321.4, 249.4)" opacity="1">
<path style="fill:#FB717E;fill-opacity:1" d="M1.6 -7.95L6.05 -8.65Q6.4 -5.95 8.1 -4.5Q9.8 -3.1 12.9 -3.1Q16 -3.1 17.5 -4.35Q19 -5.6 19 -7.3Q19 -8.85 17.65 -9.7Q16.75 -10.3 13.1 -11.25Q8.15 -12.5 6.2 -13.4Q4.3 -14.3 3.3 -15.9Q2.35 -17.55 2.35 -19.5Q2.35 -21.25 3.15 -22.75Q3.95 -24.3 5.35 -25.3Q6.4 -26.05 8.2 -26.6Q10.05 -27.15 12.1 -27.15Q15.25 -27.15 17.6 -26.25Q19.95 -25.35 21.05 -23.8Q22.2 -22.25 22.65 -19.7L18.25 -19.1Q17.95 -21.15 16.5 -22.3Q15.05 -23.45 12.45 -23.45Q9.35 -23.45 8 -22.4Q6.7 -21.4 6.7 -20Q6.7 -19.15 7.25 -18.45Q7.8 -17.7 8.95 -17.25L12.95 -16.1Q17.7 -14.8 19.6 -14Q21.5 -13.2 22.55 -11.65Q23.65 -10.1 23.65 -7.8Q23.65 -5.55 22.3 -3.55Q21 -1.55 18.5 -0.45Q16.05 0.6 12.95 0.6Q7.75 0.6 5.05 -1.55Q2.35 -3.7 1.6 -7.95" />
</g>
<g id="PathID_54" transform="matrix(0.3125, 0, 0, 0.3125, 321.4, 249.4)" opacity="1">
</g>
<g id="PathID_55" transform="matrix(0.3125, 0, 0, 0.3125, 329.4, 249.4)" opacity="1">
<path style="fill:#FB717E;fill-opacity:1" d="M1.6 -7.95L6.05 -8.65Q6.4 -5.95 8.1 -4.5Q9.8 -3.1 12.9 -3.1Q16 -3.1 17.5 -4.35Q19 -5.6 19 -7.3Q19 -8.85 17.65 -9.7Q16.75 -10.3 13.1 -11.25Q8.15 -12.5 6.2 -13.4Q4.3 -14.3 3.3 -15.9Q2.35 -17.55 2.35 -19.5Q2.35 -21.25 3.15 -22.75Q3.95 -24.3 5.35 -25.3Q6.4 -26.05 8.2 -26.6Q10.05 -27.15 12.1 -27.15Q15.25 -27.15 17.6 -26.25Q19.95 -25.35 21.05 -23.8Q22.2 -22.25 22.65 -19.7L18.25 -19.1Q17.95 -21.15 16.5 -22.3Q15.05 -23.45 12.45 -23.45Q9.35 -23.45 8 -22.4Q6.7 -21.4 6.7 -20Q6.7 -19.15 7.25 -18.45Q7.8 -17.7 8.95 -17.25L12.95 -16.1Q17.7 -14.8 19.6 -14Q21.5 -13.2 22.55 -11.65Q23.65 -10.1 23.65 -7.8Q23.65 -5.55 22.3 -3.55Q21 -1.55 18.5 -0.45Q16.05 0.6 12.95 0.6Q7.75 0.6 5.05 -1.55Q2.35 -3.7 1.6 -7.95" />
</g>
<g id="PathID_56" transform="matrix(0.3125, 0, 0, 0.3125, 329.4, 249.4)" opacity="1">
</g>
</svg>
